<svg width="16" height="16" viewBox="0 0 16 16" fill="none" xmlns="http://www.w3.org/2000/svg">
<path d="M14.25 0.125H1.75C1.41848 0.125 1.10054 0.256696 0.866116 0.491116C0.631696 0.725537 0.5 1.04348 0.5 1.375V5.96641C0.5 12.968 6.42344 15.2898 7.60938 15.6836C7.86258 15.7703 8.13742 15.7703 8.39062 15.6836C9.57812 15.2891 15.5 12.9672 15.5 5.96562V1.375C15.5 1.04348 15.3683 0.725537 15.1339 0.491116C14.8995 0.256696 14.5815 0.125 14.25 0.125ZM7.375 4.5C7.375 4.33424 7.44085 4.17527 7.55806 4.05806C7.67527 3.94085 7.83424 3.875 8 3.875C8.16576 3.875 8.32473 3.94085 8.44194 4.05806C8.55915 4.17527 8.625 4.33424 8.625 4.5V7.625C8.625 7.79076 8.55915 7.94973 8.44194 8.06694C8.32473 8.18415 8.16576 8.25 8 8.25C7.83424 8.25 7.67527 8.18415 7.55806 8.06694C7.44085 7.94973 7.375 7.79076 7.375 7.625V4.5ZM8 11.375C7.81458 11.375 7.63332 11.32 7.47915 11.217C7.32498 11.114 7.20482 10.9676 7.13386 10.7963C7.06291 10.625 7.04434 10.4365 7.08051 10.2546C7.11669 10.0727 7.20598 9.9057 7.33709 9.77459C7.4682 9.64348 7.63525 9.55419 7.8171 9.51801C7.99896 9.48184 8.18746 9.50041 8.35877 9.57136C8.53007 9.64232 8.67649 9.76248 8.7795 9.91665C8.88252 10.0708 8.9375 10.2521 8.9375 10.4375C8.9375 10.6861 8.83873 10.9246 8.66291 11.1004C8.4871 11.2762 8.24864 11.375 8 11.375Z" fill="#CACBCE"/>
</svg>
