<svg width="19" height="18" viewBox="0 0 19 18" fill="none" xmlns="http://www.w3.org/2000/svg">
<path d="M8 17.25C8 17.4489 7.92098 17.6397 7.78033 17.7803C7.63968 17.921 7.44891 18 7.25 18H2C1.60218 18 1.22064 17.842 0.93934 17.5607C0.658035 17.2794 0.5 16.8978 0.5 16.5V1.5C0.5 1.10218 0.658035 0.720644 0.93934 0.43934C1.22064 0.158035 1.60218 0 2 0H7.25C7.44891 0 7.63968 0.0790178 7.78033 0.21967C7.92098 0.360322 8 0.551088 8 0.75C8 0.948912 7.92098 1.13968 7.78033 1.28033C7.63968 1.42098 7.44891 1.5 7.25 1.5H2V16.5H7.25C7.44891 16.5 7.63968 16.579 7.78033 16.7197C7.92098 16.8603 8 17.0511 8 17.25ZM18.2806 8.46937L14.5306 4.71937C14.3899 4.57864 14.199 4.49958 14 4.49958C13.801 4.49958 13.6101 4.57864 13.4694 4.71937C13.3286 4.86011 13.2496 5.05098 13.2496 5.25C13.2496 5.44902 13.3286 5.63989 13.4694 5.78063L15.9397 8.25H7.25C7.05109 8.25 6.86032 8.32902 6.71967 8.46967C6.57902 8.61032 6.5 8.80109 6.5 9C6.5 9.19891 6.57902 9.38968 6.71967 9.53033C6.86032 9.67098 7.05109 9.75 7.25 9.75H15.9397L13.4694 12.2194C13.3286 12.3601 13.2496 12.551 13.2496 12.75C13.2496 12.949 13.3286 13.1399 13.4694 13.2806C13.6101 13.4214 13.801 13.5004 14 13.5004C14.199 13.5004 14.3899 13.4214 14.5306 13.2806L18.2806 9.53063C18.3504 9.46097 18.4057 9.37825 18.4434 9.2872C18.4812 9.19616 18.5006 9.09856 18.5006 9C18.5006 8.90144 18.4812 8.80384 18.4434 8.7128C18.4057 8.62175 18.3504 8.53903 18.2806 8.46937Z" fill="#21242C"/>
</svg>
