<svg width="18" height="14" viewBox="0 0 18 14" fill="none" xmlns="http://www.w3.org/2000/svg">
<path d="M15.25 0.75H2.75C2.25272 0.75 1.77581 0.947544 1.42417 1.29917C1.07254 1.65081 0.875 2.12772 0.875 2.625V11.375C0.875 11.8723 1.07254 12.3492 1.42417 12.7008C1.77581 13.0525 2.25272 13.25 2.75 13.25H15.25C15.7473 13.25 16.2242 13.0525 16.5758 12.7008C16.9275 12.3492 17.125 11.8723 17.125 11.375V2.625C17.125 2.12772 16.9275 1.65081 16.5758 1.29917C16.2242 0.947544 15.7473 0.75 15.25 0.75ZM10.8375 6.75078C10.7499 7.17297 10.5196 7.55209 10.1851 7.82427C9.85074 8.09644 9.43274 8.24505 9.00156 8.24505C8.57039 8.24505 8.15239 8.09644 7.81798 7.82427C7.48357 7.55209 7.25318 7.17297 7.16562 6.75078C7.10807 6.4679 6.95438 6.21366 6.73065 6.03123C6.50693 5.84881 6.22696 5.74944 5.93828 5.75H2.125V4.5H15.875V5.75H12.0617C11.7736 5.75016 11.4943 5.84986 11.2713 6.03222C11.0482 6.21459 10.8949 6.46843 10.8375 6.75078ZM2.75 2H15.25C15.4158 2 15.5747 2.06585 15.6919 2.18306C15.8092 2.30027 15.875 2.45924 15.875 2.625V3.25H2.125V2.625C2.125 2.45924 2.19085 2.30027 2.30806 2.18306C2.42527 2.06585 2.58424 2 2.75 2Z" fill="#CACBCE"/>
</svg>
